<svg width="166" height="32" viewBox="0 0 166 32" fill="none" xmlns="http://www.w3.org/2000/svg">
<g clip-path="url(#clip0_0_124)">
<path d="M74.6586 15.9959V28.4395H67.5949V23.1089C67.5949 19.1325 70.6825 16 74.6586 16V15.9959ZM74.6586 0.88916H64.192C56.8785 0.88916 50.949 6.85777 50.949 14.2177V28.4353H57.5705V7.99798H67.599C71.5506 7.99798 74.6627 4.89019 74.6627 0.88916H74.6586ZM34.6185 0.88916H23.7096C23.7096 4.42505 26.576 7.55343 30.11 7.55343H40.7977V28.4395H47.4192V13.7772C47.4192 6.70959 41.6863 0.88916 34.6185 0.88916ZM10.9089 0.88916H0C0 4.42505 2.86645 7.55343 6.40036 7.55343H17.0881V28.4395H23.7096V13.7772C23.7096 6.70959 17.9808 0.88916 10.9089 0.88916Z" fill="#7C57FC"/>
<path d="M94.519 3.63056H96.9186V5.48289H94.519V10.0725C94.519 10.4265 94.6828 10.6077 95.0145 10.6077H96.7098V12.46H94.2365C93.6591 12.46 93.1923 12.2789 92.8319 11.9166C92.4716 11.5544 92.2914 11.0728 92.2914 10.4677V0.889118H94.5149V3.63056H94.519ZM101.157 7.43813C101.157 6.80834 101.341 6.3432 101.706 6.04271C102.07 5.74222 102.537 5.58992 103.102 5.58992H104.195V3.59763H103.135C102.733 3.59763 102.385 3.67996 102.082 3.84873C101.783 4.01338 101.566 4.27682 101.439 4.63082H101.12V3.63468H98.9292V12.46H101.153V7.44224L101.157 7.43813ZM114.502 12.4559H113.02C112.586 12.4559 112.225 12.3489 111.943 12.1348C111.66 11.9208 111.521 11.6367 111.521 11.2786V11.2622H111.185C111.136 11.4062 111.034 11.5915 110.866 11.822C110.702 12.0525 110.44 12.2583 110.088 12.4353C109.736 12.6123 109.253 12.7029 108.642 12.7029C108.032 12.7029 107.459 12.5917 106.963 12.3736C106.468 12.1554 106.079 11.8343 105.788 11.4145C105.502 10.9946 105.354 10.4801 105.354 9.87497C105.354 9.26987 105.498 8.76357 105.788 8.35194C106.075 7.94443 106.476 7.63571 106.988 7.42578C107.5 7.21996 108.085 7.11294 108.745 7.11294H111.144V6.61487C111.144 6.19913 111.013 5.85747 110.755 5.58992C110.497 5.32236 110.084 5.19064 109.519 5.19064C108.954 5.19064 108.552 5.31824 108.282 5.57345C108.012 5.82866 107.836 6.15796 107.754 6.56136L105.706 5.86571C105.846 5.41291 106.075 5.00129 106.386 4.63082C106.697 4.25624 107.115 3.95575 107.639 3.72112C108.163 3.49061 108.802 3.37535 109.556 3.37535C110.71 3.37535 111.619 3.66761 112.291 4.24801C112.963 4.8284 113.298 5.67224 113.298 6.7754V10.0684C113.298 10.4224 113.462 10.6036 113.794 10.6036H114.498V12.4559H114.502ZM111.148 8.78827H108.904C108.491 8.78827 108.167 8.87883 107.934 9.05583C107.696 9.23283 107.582 9.48392 107.582 9.80499C107.582 10.1261 107.705 10.3854 107.954 10.5871C108.2 10.7888 108.561 10.8876 109.031 10.8876C109.654 10.8876 110.166 10.7106 110.559 10.3607C110.952 10.0108 111.148 9.54567 111.148 8.96527V8.78827ZM122.987 3.95575C122.475 3.64291 121.877 3.48238 121.193 3.48238C120.403 3.48238 119.817 3.62233 119.428 3.90224C119.039 4.18215 118.777 4.4744 118.634 4.78312H118.315V3.62645H116.124V12.4518H118.347V7.96501C118.347 7.14587 118.536 6.50785 118.912 6.05094C119.289 5.59403 119.817 5.36764 120.501 5.36764C121.103 5.36764 121.562 5.53229 121.885 5.86571C122.209 6.19913 122.373 6.6972 122.373 7.35992V12.4518H124.596V7.18292C124.596 6.4461 124.457 5.80396 124.174 5.25238C123.892 4.7008 123.495 4.26859 122.983 3.95163L122.987 3.95575ZM132.573 7.49575C132.037 7.29817 131.439 7.14175 130.78 7.02238L130.284 6.93182C129.883 6.86185 129.567 6.75894 129.33 6.61899C129.092 6.48315 128.978 6.27322 128.978 5.98508C128.978 5.72575 129.088 5.51994 129.314 5.37175C129.539 5.22357 129.862 5.14947 130.284 5.14947C130.706 5.14947 131.062 5.24415 131.353 5.4335C131.639 5.62285 131.832 5.94392 131.926 6.39259L133.99 5.75045C133.789 5.03833 133.368 4.46205 132.721 4.02573C132.074 3.58528 131.263 3.36712 130.284 3.36712C129.248 3.36712 128.413 3.60175 127.778 4.07101C127.143 4.54026 126.824 5.21122 126.824 6.0921C126.824 6.6725 126.975 7.14999 127.282 7.51634C127.59 7.88269 127.995 8.17083 128.503 8.38076C129.011 8.58657 129.567 8.75122 130.182 8.87059L130.677 8.96115C131.193 9.05583 131.57 9.17932 131.807 9.3275C132.045 9.47569 132.16 9.68562 132.16 9.96141C132.16 10.2372 132.037 10.4636 131.787 10.6447C131.541 10.8299 131.156 10.9205 130.64 10.9205C130.3 10.9205 129.985 10.8711 129.694 10.7682C129.408 10.6694 129.166 10.5006 128.97 10.2619C128.777 10.0232 128.638 9.69797 128.556 9.28222L126.509 9.81734C126.66 10.7435 127.102 11.4556 127.831 11.9537C128.56 12.4518 129.498 12.7029 130.636 12.7029C131.775 12.7029 132.647 12.4518 133.31 11.9455C133.974 11.4433 134.309 10.727 134.309 9.80087C134.309 9.18343 134.154 8.69359 133.843 8.33136C133.531 7.96913 133.105 7.68922 132.573 7.49575ZM136.254 12.4518H138.478V0H136.254V12.46V12.4518ZM148.826 10.5994H149.53V12.4518H148.048C147.614 12.4518 147.253 12.3447 146.971 12.1307C146.688 11.9166 146.549 11.6326 146.549 11.2745V11.258H146.213C146.164 11.4021 146.062 11.5873 145.894 11.8179C145.73 12.0484 145.472 12.2542 145.116 12.4312C144.764 12.6082 144.281 12.6987 143.67 12.6987C143.06 12.6987 142.487 12.5876 141.991 12.3694C141.496 12.1513 141.107 11.8302 140.816 11.4103C140.53 10.9905 140.382 10.4759 140.382 9.87085C140.382 9.26576 140.525 8.75945 140.816 8.34783C141.103 7.94031 141.504 7.63159 142.016 7.42166C142.528 7.21585 143.113 7.10882 143.773 7.10882H146.172V6.61075C146.172 6.19501 146.041 5.85336 145.783 5.5858C145.525 5.31824 145.112 5.18652 144.547 5.18652C143.982 5.18652 143.58 5.31412 143.31 5.56933C143.04 5.82454 142.864 6.15385 142.782 6.55724L140.734 5.86159C140.878 5.4088 141.103 4.99717 141.414 4.6267C141.725 4.25624 142.143 3.95163 142.667 3.71701C143.191 3.48649 143.83 3.37124 144.584 3.37124C145.738 3.37124 146.647 3.66349 147.319 4.24389C147.991 4.82429 148.326 5.66813 148.326 6.77129V10.0643C148.326 10.4183 148.49 10.5994 148.822 10.5994H148.826ZM146.176 8.78415H143.932C143.519 8.78415 143.195 8.87471 142.962 9.05171C142.729 9.22871 142.61 9.4798 142.61 9.80087C142.61 10.1219 142.733 10.3813 142.982 10.583C143.228 10.7847 143.588 10.8835 144.059 10.8835C144.682 10.8835 145.194 10.7065 145.587 10.3566C145.98 10.0067 146.176 9.54155 146.176 8.96115V8.78415ZM153.379 0.880885H151.156V10.4554C151.156 11.0605 151.336 11.5421 151.696 11.9043C152.057 12.2665 152.524 12.4476 153.101 12.4476H155.574V10.5953H153.879C153.551 10.5953 153.384 10.4183 153.384 10.0602V5.47054H155.783V3.61821H153.384V0.889118L153.379 0.880885ZM166.004 8.69359H159.632C159.657 9.29869 159.878 9.79264 160.304 10.1713C160.73 10.55 161.246 10.7394 161.856 10.7394C162.466 10.7394 162.937 10.6036 163.232 10.3319C163.527 10.0602 163.748 9.7556 163.903 9.42218L165.722 10.3854C165.558 10.6941 165.32 11.0275 165.005 11.3898C164.694 11.752 164.28 12.0607 163.76 12.3159C163.24 12.5711 162.585 12.6987 161.782 12.6987C160.91 12.6987 160.144 12.5135 159.477 12.1389C158.813 11.7643 158.293 11.2375 157.925 10.5542C157.552 9.87085 157.368 9.06818 157.368 8.14201V7.92797C157.368 7.0018 157.552 6.19913 157.917 5.51582C158.281 4.83252 158.793 4.30563 159.452 3.93105C160.112 3.55647 160.877 3.37124 161.745 3.37124C162.613 3.37124 163.351 3.5647 163.989 3.94752C164.624 4.33445 165.12 4.86545 165.472 5.54875C165.824 6.23206 166 7.02238 166 7.92385V8.68948L166.004 8.69359ZM163.744 7.02238C163.695 6.51196 163.494 6.10445 163.134 5.79573C162.773 5.48701 162.306 5.33471 161.729 5.33471C161.152 5.33471 160.652 5.49112 160.3 5.79573C159.948 6.10445 159.731 6.51196 159.645 7.02238H163.74H163.744ZM94.519 16.8644H92.2955V26.4389C92.2955 27.044 92.4757 27.5256 92.836 27.8878C93.1964 28.2501 93.6632 28.4312 94.2406 28.4312H96.7139V26.5789H95.0186C94.691 26.5789 94.5231 26.4019 94.5231 26.0437V21.4541H96.9227V19.6017H94.5231V16.8603L94.519 16.8644ZM107.09 21.4376C107.492 22.1127 107.692 22.9277 107.692 23.8745V24.1585C107.692 25.1093 107.492 25.9202 107.09 26.5953C106.689 27.2704 106.145 27.789 105.448 28.143C104.752 28.497 103.97 28.6782 103.102 28.6782C102.234 28.6782 101.448 28.5012 100.756 28.143C100.059 27.7849 99.5148 27.2704 99.1135 26.5953C98.7122 25.9202 98.5116 25.1052 98.5116 24.1585V23.8745C98.5116 22.9236 98.7122 22.1127 99.1135 21.4376C99.5148 20.7625 100.059 20.2439 100.756 19.8899C101.452 19.5359 102.234 19.3548 103.102 19.3548C103.97 19.3548 104.756 19.5318 105.448 19.8899C106.145 20.2439 106.689 20.7625 107.09 21.4376ZM105.465 23.928C105.465 23.0965 105.244 22.4585 104.801 22.0139C104.359 21.5693 103.794 21.3471 103.098 21.3471C102.402 21.3471 101.849 21.5693 101.403 22.0139C100.956 22.4585 100.731 23.0965 100.731 23.928V24.105C100.731 24.9365 100.956 25.5745 101.403 26.019C101.849 26.4636 102.414 26.6859 103.098 26.6859C103.782 26.6859 104.347 26.4636 104.793 26.019C105.24 25.5745 105.465 24.9365 105.465 24.105V23.928ZM120.825 19.6017H123.016V29.9954C123.016 30.6005 122.84 31.0821 122.487 31.4443C122.135 31.8065 121.664 31.9877 121.075 31.9877H115.215V30.0283H120.301C120.628 30.0283 120.796 29.8513 120.796 29.4932V27.1963H120.477C120.358 27.3856 120.194 27.5791 119.981 27.7767C119.768 27.9743 119.486 28.1348 119.134 28.2665C118.781 28.3983 118.335 28.4641 117.79 28.4641C117.074 28.4641 116.41 28.2871 115.804 27.9372C115.198 27.5873 114.711 27.0852 114.347 26.4224C113.982 25.7638 113.798 24.9735 113.798 24.0473V23.7633C113.798 22.8372 113.982 22.0468 114.347 21.3882C114.711 20.7296 115.198 20.2274 115.804 19.8734C116.41 19.5235 117.074 19.3507 117.79 19.3507C118.589 19.3507 119.195 19.4947 119.609 19.7787C120.022 20.0628 120.321 20.3591 120.51 20.6679H120.829V19.6017H120.825ZM120.825 23.8209C120.825 23.0142 120.6 22.3926 120.145 21.9604C119.691 21.5282 119.117 21.31 118.425 21.31C117.733 21.31 117.172 21.5282 116.713 21.9604C116.255 22.3926 116.026 23.0142 116.026 23.8209V23.9979C116.026 24.7924 116.255 25.4098 116.713 25.8503C117.172 26.2907 117.745 26.5089 118.425 26.5089C119.105 26.5089 119.678 26.2907 120.137 25.8503C120.595 25.4098 120.825 24.7924 120.825 23.9979V23.8209ZM133.642 21.4376C134.043 22.1127 134.244 22.9277 134.244 23.8745V24.1585C134.244 25.1093 134.043 25.9202 133.642 26.5953C133.241 27.2704 132.696 27.789 132 28.143C131.304 28.497 130.522 28.6782 129.653 28.6782C128.785 28.6782 127.999 28.5012 127.307 28.143C126.611 27.7849 126.066 27.2704 125.665 26.5953C125.264 25.9202 125.063 25.1052 125.063 24.1585V23.8745C125.063 22.9236 125.264 22.1127 125.665 21.4376C126.066 20.7625 126.611 20.2439 127.307 19.8899C128.003 19.5359 128.785 19.3548 129.653 19.3548C130.522 19.3548 131.308 19.5318 132 19.8899C132.696 20.2439 133.241 20.7625 133.642 21.4376ZM132.016 23.928C132.016 23.0965 131.795 22.4585 131.353 22.0139C130.911 21.5693 130.345 21.3471 129.649 21.3471C128.953 21.3471 128.4 21.5693 127.954 22.0139C127.508 22.4585 127.282 23.0965 127.282 23.928V24.105C127.282 24.9365 127.508 25.5745 127.954 26.019C128.4 26.4636 128.966 26.6859 129.649 26.6859C130.333 26.6859 130.898 26.4636 131.345 26.019C131.791 25.5745 132.016 24.9365 132.016 24.105V23.928Z" fill="#231F20"/>
</g>
<defs>
<clipPath id="clip0_0_124">
<rect width="166" height="32" fill="white"/>
</clipPath>
</defs>
</svg>
