<svg width="48" height="48" viewBox="0 0 48 48" fill="none" xmlns="http://www.w3.org/2000/svg">
<path d="M9 42V22M9 42H6M9 42H19M39 42V22M39 42H29M39 42H42M29 42V22M29 42H19M19 42V22M41.1782 20.274L26.751 6.60619C25.4483 5.37206 24.7969 4.755 24 4.755C23.2031 4.755 22.5517 5.37206 21.249 6.60619L6.82184 20.274C6.0505 21.0048 5.66482 21.3702 5.79031 21.6851C5.91579 22 6.44706 22 7.50958 22H40.4904C41.5529 22 42.0842 22 42.2097 21.6851C42.3352 21.3702 41.9495 21.0048 41.1782 20.274Z" stroke="#7C57FC" stroke-width="4" stroke-linecap="round"/>
</svg>
