<svg width="40" height="36" viewBox="0 0 40 36" fill="none" xmlns="http://www.w3.org/2000/svg">
<path d="M2.00002 6C2.00002 4.11438 2.00002 3.17157 2.58581 2.58579C3.17159 2 4.1144 2 6.00002 2H34C35.8856 2 36.8284 2 37.4142 2.58579C38 3.17157 38 4.11438 38 6L38 22C38 23.8856 38 24.8284 37.4142 25.4142C36.8284 26 35.8856 26 34 26H6.00002C4.1144 26 3.17159 26 2.58581 25.4142C2.00002 24.8284 2.00002 23.8856 2.00002 22V6Z" stroke="#7C57FC" stroke-width="4"/>
<path d="M9 26H31L35.0976 30.6829C36.3479 32.1119 36.9731 32.8264 36.7068 33.4132C36.4406 33.9999 35.4912 33.9999 33.5924 33.9999H6.40756C4.5088 33.9999 3.55942 33.9999 3.29315 33.4132C3.02689 32.8264 3.65206 32.1119 4.90241 30.6829L9 26Z" stroke="#7C57FC" stroke-width="4"/>
</svg>
