<svg width="36" height="42" viewBox="0 0 36 42" fill="none" xmlns="http://www.w3.org/2000/svg">
<path d="M8 5H6C4.11438 5 3.17157 5 2.58579 5.58579C2 6.17157 2 7.11438 2 9V36C2 37.8856 2 38.8284 2.58579 39.4142C3.17157 40 4.11438 40 6 40H30C31.8856 40 32.8284 40 33.4142 39.4142C34 38.8284 34 37.8856 34 36V9C34 7.11438 34 6.17157 33.4142 5.58579C32.8284 5 31.8856 5 30 5H28" stroke="#7C57FC" stroke-width="4"/>
<path d="M8 5.5C8 4.09554 8 3.39331 8.33706 2.88886C8.48298 2.67048 8.67048 2.48298 8.88886 2.33706C9.39331 2 10.0955 2 11.5 2H24.5C25.9045 2 26.6067 2 27.1111 2.33706C27.3295 2.48298 27.517 2.67048 27.6629 2.88886C28 3.39331 28 4.09554 28 5.5V5.5C28 6.90446 28 7.60669 27.6629 8.11114C27.517 8.32952 27.3295 8.51702 27.1111 8.66294C26.6067 9 25.9045 9 24.5 9H11.5C10.0955 9 9.39331 9 8.88886 8.66294C8.67048 8.51702 8.48298 8.32952 8.33706 8.11114C8 7.60669 8 6.90446 8 5.5V5.5Z" stroke="#7C57FC" stroke-width="4"/>
<path d="M10 16H26" stroke="#7C57FC" stroke-width="4" stroke-linecap="round" stroke-linejoin="round"/>
<path d="M10 24H26" stroke="#7C57FC" stroke-width="4" stroke-linecap="round" stroke-linejoin="round"/>
<path d="M10 32H18" stroke="#7C57FC" stroke-width="4" stroke-linecap="round" stroke-linejoin="round"/>
</svg>
